<svg id="Layer_1" data-name="Layer 1" xmlns="http://www.w3.org/2000/svg" viewBox="0 0 90.68 90.67"><defs><style>.cls-1{fill:#231f20;}.cls-2{fill:#fff;fill-rule:evenodd;}</style></defs><path class="cls-1" d="M49,2.54A45.33,45.33,0,1,0,92.15,33.87,45.34,45.34,0,0,0,49,2.54Z" transform="translate(-3.7 -2.54)"/><path class="cls-2" d="M55.81,33.56c1.35-.05,2.7,0,4.06,0h.55v-7c-.72-.07-1.47-.18-2.23-.21-1.38-.06-2.77-.13-4.16-.1A10.31,10.31,0,0,0,48.15,28a8.85,8.85,0,0,0-3.53,5.87,21.82,21.82,0,0,0-.24,3c0,1.58,0,3.15,0,4.73v.59H37.65v7.86h6.68V69.82h8.18V50.11h6.66l1-7.89H52.45s0-3.89.07-5.58C52.58,34.33,54,33.62,55.81,33.56Z" transform="translate(-3.7 -2.54)"/></svg>