<svg id="Layer_1" data-name="Layer 1" xmlns="http://www.w3.org/2000/svg" viewBox="0 0 90.68 90.67"><defs><style>.cls-1{fill:#231f20;}.cls-2{fill:#fff;}</style></defs><path class="cls-1" d="M49,3A45.33,45.33,0,1,0,92.15,34.33,45.34,45.34,0,0,0,49,3Z" transform="translate(-3.7 -3)"/><path class="cls-2" d="M48.59,68.1H40.84a11.38,11.38,0,0,1-11.07-7.85,12.45,12.45,0,0,1-.6-3.74c-.06-5.25,0-10.5,0-15.76a11.44,11.44,0,0,1,9-11.32,12.32,12.32,0,0,1,2.64-.27q7.79,0,15.59,0a11.45,11.45,0,0,1,11.39,9,11.72,11.72,0,0,1,.27,2.64q0,7.78,0,15.59a11.44,11.44,0,0,1-9,11.4,12.1,12.1,0,0,1-2.69.27C53.79,68.12,51.19,68.1,48.59,68.1Zm16-19.43c0-2.6,0-5.2,0-7.8A8.71,8.71,0,0,0,64.36,39a7.81,7.81,0,0,0-7.73-6.26c-5.34,0-10.69,0-16,0a7.63,7.63,0,0,0-1.64.18,7.83,7.83,0,0,0-6.26,7.73c0,5.35,0,10.69,0,16a8.16,8.16,0,0,0,.18,1.64,7.83,7.83,0,0,0,7.79,6.26c5.31,0,10.62,0,15.93,0a8.11,8.11,0,0,0,1.7-.18,7.86,7.86,0,0,0,6.26-7.73C64.57,54,64.55,51.33,64.55,48.67Z" transform="translate(-3.7 -3)"/><path class="cls-2" d="M59.24,48.6A10.62,10.62,0,1,1,48.58,38,10.65,10.65,0,0,1,59.24,48.6Zm-3.54,0a7.08,7.08,0,1,0-7.13,7.05A7.08,7.08,0,0,0,55.7,48.65Z" transform="translate(-3.7 -3)"/><path class="cls-2" d="M59.1,36.57a1.6,1.6,0,0,1-.05,3.2,1.62,1.62,0,0,1-1.58-1.66A1.6,1.6,0,0,1,59.1,36.57Z" transform="translate(-3.7 -3)"/></svg>